<mxfile host="app.diagrams.net" modified="2023-11-27T17:24:35.924Z" agent="Mozilla/5.0 (Windows NT 10.0; Win64; x64) AppleWebKit/537.36 (KHTML, like Gecko) Chrome/119.0.0.0 Safari/537.36" version="22.1.4" etag="Ugw_vbPxFS-22v4I8DPf" type="github">
  <diagram name="Page-1" id="Eh_BCX8K2EOpvghZnZSi">
    <mxGraphModel>
      <root>
        <mxCell id="0" />
        <mxCell id="1" parent="0" />
      </root>
    </mxGraphModel>
  </diagram>
</mxfile>
